<svg version="1.0" xmlns="http://www.w3.org/2000/svg" width="682.667" height="682.667" viewBox="0 0 512 512"><path d="M154 29.6c-1.4.2-5.9.9-10 1.5-10.8 1.6-24.9 6.3-37.5 12.5C69.8 61.7 42.8 97.3 34.4 139c-1.6 7.8-1.8 22.4-2.1 176.2L31.9 483H122V320.7c0-142.6.2-163 1.5-168.2 3.4-13.1 11.5-22.9 23.9-29 6.2-3.1 8.8-3.8 15.8-4.2 19.3-1.2 35.3 7.8 43.6 24.6l3.7 7.5.3 165.8.2 165.8h90V320.7c0-177.3-.3-167.9 5.7-178.9 1.5-2.7 4.9-7.1 7.7-9.9 21.2-21.2 58-15.3 71.1 11.5 1.9 3.9 4 9.5 4.5 12.5.6 3.4 1 63.4 1 166.2V483h89l-.3-169.7c-.3-169-.3-169.8-2.4-178.3-10.3-41.2-33.9-72.1-69.2-90.3-21.3-11-38.5-15.2-62.6-15.1-32 .1-57.6 9.1-82.6 29l-6.6 5.2-4.4-3.7c-16.2-13.9-37.5-23.9-60.4-28.6-7.7-1.6-32.3-2.8-37.5-1.9z"/></svg>