<?xml version="1.0" standalone="no"?>
<!DOCTYPE svg PUBLIC "-//W3C//DTD SVG 20010904//EN"
 "http://www.w3.org/TR/2001/REC-SVG-20010904/DTD/svg10.dtd">
<svg version="1.0" xmlns="http://www.w3.org/2000/svg"
 width="512.000000pt" height="512.000000pt" viewBox="0 0 512.000000 512.000000"
 preserveAspectRatio="xMidYMid meet">
<metadata>
Created by potrace 1.14, written by Peter Selinger 2001-2017
</metadata>
<g transform="translate(0.000000,512.000000) scale(0.100000,-0.100000)"
fill="#000000" stroke="none">
<path d="M1540 4824 c-14 -2 -59 -9 -100 -15 -108 -16 -249 -63 -375 -125
-367 -181 -637 -537 -721 -954 -16 -78 -18 -224 -21 -1762 l-4 -1678 451 0
450 0 0 1623 c0 1426 2 1630 15 1682 34 131 115 229 239 290 62 31 88 38 158
42 193 12 353 -78 436 -246 l37 -75 3 -1658 2 -1658 450 0 450 0 0 1623 c0
1773 -3 1679 57 1789 15 27 49 71 77 99 212 212 580 153 711 -115 19 -39 40
-95 45 -125 6 -34 10 -634 10 -1662 l0 -1609 445 0 445 0 -3 1697 c-3 1690 -3
1698 -24 1783 -103 412 -339 721 -692 903 -213 110 -385 152 -626 151 -320 -1
-576 -91 -826 -290 l-66 -52 -44 37 c-162 139 -375 239 -604 286 -77 16 -323
28 -375 19z"/>
</g>
</svg>
